<?xml version="1.0" encoding="utf-8"?>
<!-- Generator: Adobe Illustrator 27.9.0, SVG Export Plug-In . SVG Version: 6.00 Build 0)  -->
<svg version="1.1" id="Layer_1" xmlns="http://www.w3.org/2000/svg" xmlns:xlink="http://www.w3.org/1999/xlink" x="0px" y="0px"
	 viewBox="0 0 1100 272.5" style="enable-background:new 0 0 1100 272.5;" xml:space="preserve">
<style type="text/css">
	.st0{fill:#1C2D56;}
	.st1{fill:#78BED4;}
</style>
<g>
	<g>
		<path class="st0" d="M1003.1,236.3c25,0,38.2-5.7,47.8-26.6l49.1-106.4h-33.1l-18.8,45.2l-7.9,23.6h-2l-8.3-23.4l-21-45.4h-33.7
			l48.5,99.7c-2,4.4-5.2,6.3-12.5,6.3h-24.4v26.9H1003.1z M970.4,69.9h-29.7v132.8h29.7V69.9z M842.2,153.7v-1.6
			c0-17.2,9.9-23.6,29.1-23.6c19,0,27.7,6.3,27.7,24.6c0,18-8.7,24.4-27.9,24.4C852.4,177.5,842.2,170.9,842.2,153.7 M840.1,202.6
			v-27.5h1.8c3.6,19.6,16.6,29.5,39.6,29.5c30.9,0,47.8-20.2,47.8-51.5c0-31.7-16.6-51.7-46.4-51.7c-23.6,0-35.7,11.7-39,28.3h-1.6
			V69.9h-29.7v132.8H840.1z M723.8,176.1c0-4.8,3.2-6.7,10.3-7.3l34.5-4c-0.8,14.1-11.7,18.8-31.9,18.8
			C728,183.6,723.8,181.4,723.8,176.1 M728.2,204.6c22,0,35.9-9.3,40.4-24.8h1.6v22.8h27.7v-58.3c0-26-15.7-43-48.7-43
			c-32.7,0-53.3,17-53.3,41.6v0.6h29.9v-0.8c0-11.3,6.1-15.3,21.2-15.3c15.9,0,21.6,3.6,21.6,16.4v3.8l-42.6,4.4
			c-21.2,2.2-32.1,11.3-32.1,26C693.9,194.7,706.8,204.6,728.2,204.6 M625.8,202.6v-57.5c0-12.5,4.8-18.6,18-18.6
			c12.1,0,16.4,4.8,16.4,15.7v10.3H690V136c0-19.4-9.1-34.7-31.3-34.7c-20,0-30.5,12.3-33.3,28.3h-1.8v-26.4h-27.5v99.3H625.8z
			 M510.9,204.6c26.2,0,38.2-15.7,40.8-32.3h1.6v30.3H581v-99.3h-29.7v50.3c0,16.8-6.9,24.4-26.4,24.4c-18.8,0-25.6-6.7-25.6-22.8
			v-51.9h-29.7v61.8C469.7,187.4,483,204.6,510.9,204.6 M388.5,96.6c26.9,0,37.8,7.7,37.8,39.6s-10.9,39.6-37.8,39.6h-34.3V96.6
			H388.5z M388.5,202.6c42.6,0,69.5-24.8,69.5-66.4s-26.9-66.4-69.5-66.4h-64v132.8H388.5z"/>
		<path class="st1" d="M264.4,89.7C238.7,19.1,160.3-17.5,89.7,8.2c0,0,0,0,0,0c-14.8,5.4-22.4,21.8-17,36.6
			c5.4,14.8,21.8,22.5,36.6,17.1c0,0,0,0,0,0c41-14.9,86.5,6.3,101.4,47.3c14.9,41-6.3,86.5-47.3,101.4c14.8-5.4,31.2,2.3,36.6,17.1
			c5.4,14.8-2.2,31.2-17.1,36.6c0,0-0.1,0-0.1,0c0,0,0.1,0,0.1,0C253.5,238.6,290.1,160.3,264.4,89.7"/>
		<path class="st0" d="M200,227.7c-5.4-14.8-21.8-22.5-36.6-17.1c0,0,0,0,0,0c-41,14.9-86.5-6.3-101.4-47.3c0,0,0,0,0,0
			c-7.2-19.9-6.3-41.3,2.6-60.5c8.9-19.2,24.8-33.7,44.6-40.9c0,0,0,0,0,0c0,0,0,0,0,0C94.4,67.3,78,59.7,72.7,44.8
			c-5.4-14.8,2.2-31.2,17-36.6C55.5,20.7,28.2,45.7,12.8,78.7c-15.4,33-17,70-4.5,104.2c0,0,0,0,0,0c20.1,55.3,72.5,89.6,128.2,89.6
			c15.4,0,31.1-2.6,46.4-8.2c0,0,0.1,0,0.1,0C197.8,258.9,205.4,242.5,200,227.7"/>
	</g>
</g>
</svg>
